<svg xmlns="http://www.w3.org/2000/svg" xmlns:xlink="http://www.w3.org/1999/xlink" width="500" zoomAndPan="magnify" viewBox="0 0 375 374.999991" height="500" preserveAspectRatio="xMidYMid meet" version="1.0"><defs><g/><clipPath id="411a0bb4f8"><path d="M 56.632812 167.390625 L 121.167969 167.390625 L 121.167969 208.789062 L 56.632812 208.789062 Z M 56.632812 167.390625 " clip-rule="nonzero"/></clipPath><clipPath id="9b9e8d3a9f"><path d="M 56.632812 177 L 66 177 L 66 200 L 56.632812 200 Z M 56.632812 177 " clip-rule="nonzero"/></clipPath><clipPath id="5e2828e19a"><path d="M 112 177 L 121.167969 177 L 121.167969 200 L 112 200 Z M 112 177 " clip-rule="nonzero"/></clipPath><clipPath id="e4c72f3ffd"><path d="M 56.632812 183 L 60 183 L 60 193 L 56.632812 193 Z M 56.632812 183 " clip-rule="nonzero"/></clipPath><clipPath id="67e5c0fc36"><path d="M 117 183 L 121.167969 183 L 121.167969 193 L 117 193 Z M 117 183 " clip-rule="nonzero"/></clipPath><clipPath id="6ee8786306"><path d="M 88 167.390625 L 90 167.390625 L 90 208.789062 L 88 208.789062 Z M 88 167.390625 " clip-rule="nonzero"/></clipPath><clipPath id="c716015c54"><path d="M 57 167.390625 L 60 167.390625 L 60 170 L 57 170 Z M 57 167.390625 " clip-rule="nonzero"/></clipPath><clipPath id="5cf7127d10"><path d="M 118 167.390625 L 121 167.390625 L 121 170 L 118 170 Z M 118 167.390625 " clip-rule="nonzero"/></clipPath><clipPath id="62d91b1bb3"><path d="M 118 167.390625 L 120 167.390625 L 120 168 L 118 168 Z M 118 167.390625 " clip-rule="nonzero"/></clipPath><clipPath id="c1f37467d6"><path d="M 118 206 L 121 206 L 121 208.789062 L 118 208.789062 Z M 118 206 " clip-rule="nonzero"/></clipPath><clipPath id="b760d5df32"><path d="M 57 206 L 60 206 L 60 208.789062 L 57 208.789062 Z M 57 206 " clip-rule="nonzero"/></clipPath></defs><path fill="#000000" d="M 65.171875 184.386719 C 66.195312 185.121094 66.882812 186.503906 66.882812 188.089844 C 66.882812 189.675781 66.195312 191.058594 65.171875 191.789062 L 65.171875 191.328125 C 66.011719 190.640625 66.570312 189.445312 66.570312 188.089844 C 66.570312 186.734375 66.011719 185.539062 65.171875 184.851562 Z M 65.171875 184.386719 " fill-opacity="1" fill-rule="evenodd"/><path fill="#000000" d="M 112.667969 184.386719 C 111.648438 185.121094 110.957031 186.503906 110.957031 188.089844 C 110.957031 189.675781 111.648438 191.058594 112.667969 191.789062 L 112.667969 191.328125 C 111.828125 190.640625 111.273438 189.445312 111.273438 188.089844 C 111.273438 186.734375 111.828125 185.539062 112.667969 184.851562 Z M 112.667969 184.386719 " fill-opacity="1" fill-rule="evenodd"/><g clip-path="url(#411a0bb4f8)"><path fill="#000000" d="M 121.140625 167.605469 C 121.140625 167.484375 121.046875 167.390625 120.929688 167.390625 L 56.867188 167.390625 C 56.75 167.390625 56.65625 167.484375 56.65625 167.605469 L 56.65625 208.574219 C 56.65625 208.691406 56.75 208.789062 56.867188 208.789062 L 120.929688 208.789062 C 121.046875 208.789062 121.140625 208.691406 121.140625 208.574219 Z M 120.71875 167.820312 L 120.71875 208.359375 C 120.71875 208.359375 57.078125 208.359375 57.078125 208.359375 C 57.078125 208.359375 57.078125 171.007812 57.078125 167.820312 C 57.078125 167.820312 120.71875 167.820312 120.71875 167.820312 Z M 120.71875 167.820312 " fill-opacity="1" fill-rule="evenodd"/></g><g clip-path="url(#9b9e8d3a9f)"><path fill="#000000" d="M 65.277344 177.335938 C 65.277344 177.214844 65.183594 177.117188 65.066406 177.117188 L 56.867188 177.117188 C 56.75 177.117188 56.65625 177.214844 56.65625 177.335938 L 56.65625 198.84375 C 56.65625 198.964844 56.75 199.0625 56.867188 199.0625 L 65.066406 199.0625 C 65.183594 199.0625 65.277344 198.964844 65.277344 198.84375 Z M 64.855469 177.550781 L 64.855469 198.628906 C 64.855469 198.628906 57.078125 198.628906 57.078125 198.628906 C 57.078125 198.628906 57.078125 179.785156 57.078125 177.550781 Z M 64.855469 177.550781 " fill-opacity="1" fill-rule="evenodd"/></g><g clip-path="url(#5e2828e19a)"><path fill="#000000" d="M 112.648438 177.117188 C 112.53125 177.117188 112.433594 177.214844 112.433594 177.335938 L 112.433594 198.84375 C 112.433594 198.964844 112.53125 199.0625 112.648438 199.0625 L 120.84375 199.0625 C 120.960938 199.0625 121.058594 198.964844 121.058594 198.84375 L 121.058594 177.335938 C 121.058594 177.214844 120.960938 177.117188 120.84375 177.117188 Z M 112.859375 177.550781 L 120.632812 177.550781 C 120.632812 177.550781 120.632812 198.628906 120.632812 198.628906 C 120.632812 198.628906 112.859375 198.628906 112.859375 198.628906 Z M 112.859375 177.550781 " fill-opacity="1" fill-rule="evenodd"/></g><g clip-path="url(#e4c72f3ffd)"><path fill="#000000" d="M 59.949219 183.65625 C 59.949219 183.535156 59.855469 183.441406 59.738281 183.441406 L 56.867188 183.441406 C 56.75 183.441406 56.65625 183.535156 56.65625 183.65625 L 56.65625 192.523438 C 56.65625 192.644531 56.75 192.738281 56.867188 192.738281 L 59.738281 192.738281 C 59.855469 192.738281 59.949219 192.644531 59.949219 192.523438 Z M 59.527344 183.871094 L 59.527344 192.308594 C 59.527344 192.308594 57.078125 192.308594 57.078125 192.308594 C 57.078125 192.308594 57.078125 185.207031 57.078125 183.871094 Z M 59.527344 183.871094 " fill-opacity="1" fill-rule="evenodd"/></g><g clip-path="url(#67e5c0fc36)"><path fill="#000000" d="M 117.976562 183.441406 C 117.859375 183.441406 117.761719 183.535156 117.761719 183.65625 L 117.761719 192.523438 C 117.761719 192.644531 117.859375 192.738281 117.976562 192.738281 L 120.84375 192.738281 C 120.960938 192.738281 121.058594 192.644531 121.058594 192.523438 C 121.058594 192.523438 121.058594 183.65625 121.058594 183.65625 C 121.058594 183.535156 120.960938 183.441406 120.84375 183.441406 Z M 118.1875 183.871094 L 120.632812 183.871094 C 120.632812 183.871094 120.632812 192.308594 120.632812 192.308594 C 120.632812 192.308594 118.1875 192.308594 118.1875 192.308594 C 118.1875 192.308594 118.1875 183.871094 118.1875 183.871094 Z M 118.1875 183.871094 " fill-opacity="1" fill-rule="evenodd"/></g><path fill="#000000" d="M 88.898438 179.695312 C 84.648438 179.695312 81.195312 183.21875 81.195312 187.558594 C 81.195312 191.898438 84.648438 195.417969 88.898438 195.417969 C 93.148438 195.417969 96.601562 191.898438 96.601562 187.558594 C 96.601562 183.21875 93.148438 179.695312 88.898438 179.695312 Z M 88.898438 180.128906 C 92.917969 180.128906 96.179688 183.457031 96.179688 187.558594 C 96.179688 191.660156 92.917969 194.988281 88.898438 194.988281 C 84.878906 194.988281 81.617188 191.660156 81.617188 187.558594 C 81.617188 183.457031 84.878906 180.128906 88.898438 180.128906 Z M 88.898438 180.128906 " fill-opacity="1" fill-rule="evenodd"/><g clip-path="url(#6ee8786306)"><path fill="#000000" d="M 88.679688 167.605469 L 88.679688 208.574219 C 88.679688 208.691406 88.773438 208.789062 88.890625 208.789062 C 89.007812 208.789062 89.101562 208.691406 89.101562 208.574219 L 89.101562 167.605469 C 89.101562 167.484375 89.007812 167.390625 88.890625 167.390625 C 88.773438 167.390625 88.679688 167.484375 88.679688 167.605469 Z M 88.679688 167.605469 " fill-opacity="1" fill-rule="evenodd"/></g><g clip-path="url(#c716015c54)"><path fill="#000000" d="M 59.105469 167.820312 C 59.007812 168.917969 58.152344 169.789062 57.078125 169.890625 L 57.078125 169.457031 C 57.917969 169.359375 58.585938 168.679688 58.679688 167.820312 Z M 59.105469 167.820312 " fill-opacity="1" fill-rule="evenodd"/></g><g clip-path="url(#5cf7127d10)"><path fill="#000000" d="M 119.117188 167.820312 C 119.210938 168.679688 119.878906 169.359375 120.71875 169.457031 L 120.71875 169.890625 C 119.644531 169.789062 118.789062 168.917969 118.691406 167.820312 Z M 119.117188 167.820312 " fill-opacity="1" fill-rule="evenodd"/></g><g clip-path="url(#62d91b1bb3)"><path fill="#000000" d="M 119.117188 167.390625 C 119.105469 167.460938 119.101562 167.53125 119.101562 167.605469 C 119.101562 167.679688 119.105469 167.75 119.117188 167.820312 L 118.691406 167.820312 C 118.683594 167.75 118.679688 167.679688 118.679688 167.605469 C 118.679688 167.53125 118.683594 167.460938 118.691406 167.390625 Z M 119.117188 167.390625 " fill-opacity="1" fill-rule="evenodd"/></g><g clip-path="url(#c1f37467d6)"><path fill="#000000" d="M 120.71875 206.285156 L 120.71875 206.722656 C 119.878906 206.820312 119.210938 207.5 119.117188 208.359375 L 118.691406 208.359375 C 118.789062 207.261719 119.644531 206.390625 120.71875 206.285156 Z M 120.71875 206.285156 " fill-opacity="1" fill-rule="evenodd"/></g><g clip-path="url(#b760d5df32)"><path fill="#000000" d="M 57.078125 206.285156 C 58.152344 206.390625 59.007812 207.261719 59.105469 208.359375 L 58.679688 208.359375 C 58.585938 207.5 57.917969 206.820312 57.078125 206.722656 Z M 57.078125 206.285156 " fill-opacity="1" fill-rule="evenodd"/></g><path fill="#000000" d="M 62.960938 188.089844 C 62.960938 188.234375 62.910156 188.359375 62.808594 188.464844 C 62.707031 188.570312 62.582031 188.621094 62.4375 188.621094 C 62.296875 188.621094 62.171875 188.570312 62.070312 188.464844 C 61.96875 188.359375 61.917969 188.234375 61.917969 188.089844 C 61.917969 187.941406 61.96875 187.816406 62.070312 187.714844 C 62.171875 187.609375 62.296875 187.558594 62.4375 187.558594 C 62.582031 187.558594 62.707031 187.609375 62.808594 187.714844 C 62.910156 187.816406 62.960938 187.941406 62.960938 188.089844 Z M 62.960938 188.089844 " fill-opacity="1" fill-rule="nonzero"/><path fill="#000000" d="M 89.738281 188.089844 C 89.738281 188.324219 89.65625 188.527344 89.492188 188.695312 C 89.328125 188.863281 89.128906 188.945312 88.898438 188.945312 C 88.667969 188.945312 88.46875 188.863281 88.304688 188.695312 C 88.140625 188.527344 88.058594 188.324219 88.058594 188.089844 C 88.058594 187.851562 88.140625 187.652344 88.304688 187.484375 C 88.46875 187.316406 88.667969 187.234375 88.898438 187.234375 C 89.128906 187.234375 89.328125 187.316406 89.492188 187.484375 C 89.65625 187.652344 89.738281 187.851562 89.738281 188.089844 Z M 89.738281 188.089844 " fill-opacity="1" fill-rule="nonzero"/><path fill="#000000" d="M 115.71875 188.089844 C 115.71875 188.234375 115.667969 188.359375 115.566406 188.464844 C 115.464844 188.570312 115.339844 188.621094 115.199219 188.621094 C 115.054688 188.621094 114.929688 188.570312 114.828125 188.464844 C 114.726562 188.359375 114.675781 188.234375 114.675781 188.089844 C 114.675781 187.941406 114.726562 187.816406 114.828125 187.714844 C 114.929688 187.609375 115.054688 187.558594 115.199219 187.558594 C 115.339844 187.558594 115.464844 187.609375 115.566406 187.714844 C 115.667969 187.816406 115.71875 187.941406 115.71875 188.089844 Z M 115.71875 188.089844 " fill-opacity="1" fill-rule="nonzero"/><g fill="#000000" fill-opacity="1"><g transform="translate(135.67721, 196.967176)"><g><path d="M 25.78125 -22.203125 L 25.78125 0 L 22.140625 0 L 22.140625 -15.203125 L 15.375 0 L 12.84375 0 L 6.046875 -15.203125 L 6.046875 0 L 2.390625 0 L 2.390625 -22.203125 L 6.328125 -22.203125 L 14.125 -4.796875 L 21.890625 -22.203125 Z M 25.78125 -22.203125 "/></g></g></g><g fill="#000000" fill-opacity="1"><g transform="translate(163.278539, 196.967176)"><g><path d="M 11.5 0 L 7.859375 0 L 7.859375 -8.046875 L 0.484375 -22.203125 L 4.53125 -22.203125 L 9.65625 -11.375 L 14.765625 -22.203125 L 18.859375 -22.203125 L 11.5 -8.046875 Z M 11.5 0 "/></g></g></g><g fill="#000000" fill-opacity="1"><g transform="translate(182.030767, 196.967176)"><g/></g></g><g fill="#000000" fill-opacity="1"><g transform="translate(191.0394, 196.967176)"><g><path d="M 25.78125 -22.203125 L 25.78125 0 L 22.140625 0 L 22.140625 -15.203125 L 15.375 0 L 12.84375 0 L 6.046875 -15.203125 L 6.046875 0 L 2.390625 0 L 2.390625 -22.203125 L 6.328125 -22.203125 L 14.125 -4.796875 L 21.890625 -22.203125 Z M 25.78125 -22.203125 "/></g></g></g><g fill="#000000" fill-opacity="1"><g transform="translate(218.64073, 196.967176)"><g><path d="M 17.375 0 L 15.78125 -4.53125 L 6.484375 -4.53125 L 4.890625 0 L 1.09375 0 L 9.046875 -22.234375 L 13.265625 -22.234375 L 21.21875 0 Z M 7.484375 -7.375 L 14.796875 -7.375 L 11.15625 -17.828125 Z M 7.484375 -7.375 "/></g></g></g><g fill="#000000" fill-opacity="1"><g transform="translate(240.332006, 196.967176)"><g><path d="M 1.25 -19.359375 L 1.25 -22.203125 L 16.75 -22.203125 L 16.75 -19.359375 L 10.828125 -19.359375 L 10.828125 0 L 7.1875 0 L 7.1875 -19.359375 Z M 1.25 -19.359375 "/></g></g></g><g fill="#000000" fill-opacity="1"><g transform="translate(257.774428, 196.967176)"><g><path d="M 12.53125 0.1875 C 9.351562 0.1875 6.664062 -0.875 4.46875 -3 C 2.28125 -5.132812 1.1875 -7.847656 1.1875 -11.140625 C 1.1875 -14.429688 2.28125 -17.144531 4.46875 -19.28125 C 6.664062 -21.425781 9.351562 -22.5 12.53125 -22.5 C 14.894531 -22.5 16.992188 -21.914062 18.828125 -20.75 C 20.671875 -19.59375 22.007812 -17.945312 22.84375 -15.8125 L 18.46875 -15.8125 C 17.269531 -18.050781 15.289062 -19.171875 12.53125 -19.171875 C 10.289062 -19.171875 8.460938 -18.4375 7.046875 -16.96875 C 5.628906 -15.5 4.921875 -13.554688 4.921875 -11.140625 C 4.921875 -8.722656 5.628906 -6.773438 7.046875 -5.296875 C 8.460938 -3.828125 10.289062 -3.09375 12.53125 -3.09375 C 15.289062 -3.09375 17.269531 -4.210938 18.46875 -6.453125 L 22.84375 -6.453125 C 22.007812 -4.328125 20.671875 -2.6875 18.828125 -1.53125 C 16.992188 -0.382812 14.894531 0.1875 12.53125 0.1875 Z M 12.53125 0.1875 "/></g></g></g><g fill="#63b2ad" fill-opacity="1"><g transform="translate(281.897698, 196.967176)"><g><path d="M 16.484375 -22.203125 L 20.125 -22.203125 L 20.125 0 L 16.484375 0 L 16.484375 -9.8125 L 6.046875 -9.8125 L 6.046875 0 L 2.390625 0 L 2.390625 -22.203125 L 6.046875 -22.203125 L 6.046875 -12.625 L 16.484375 -12.625 Z M 16.484375 -22.203125 "/></g></g></g></svg>