<svg xmlns="http://www.w3.org/2000/svg" xmlns:xlink="http://www.w3.org/1999/xlink" width="70" zoomAndPan="magnify" viewBox="0 0 52.5 30.000001" height="40" preserveAspectRatio="xMidYMid meet" version="1.0"><defs><clipPath id="91fc270044"><path d="M 11.492188 0 L 40.523438 0 L 40.523438 29.03125 L 11.492188 29.03125 Z M 11.492188 0 " clip-rule="nonzero"/></clipPath></defs><g clip-path="url(#91fc270044)"><path fill="#000000" d="M 26.007812 29.03125 C 25.054688 29.03125 24.109375 28.9375 23.175781 28.753906 C 22.242188 28.566406 21.332031 28.292969 20.453125 27.925781 C 19.574219 27.5625 18.734375 27.117188 17.941406 26.585938 C 17.152344 26.054688 16.417969 25.453125 15.742188 24.78125 C 15.070312 24.105469 14.46875 23.375 13.9375 22.582031 C 13.410156 21.789062 12.960938 20.953125 12.597656 20.070312 C 12.230469 19.191406 11.957031 18.28125 11.769531 17.347656 C 11.585938 16.414062 11.492188 15.46875 11.492188 14.515625 C 11.492188 13.5625 11.585938 12.617188 11.769531 11.683594 C 11.957031 10.75 12.230469 9.839844 12.597656 8.960938 C 12.960938 8.082031 13.410156 7.242188 13.9375 6.453125 C 14.46875 5.660156 15.070312 4.925781 15.742188 4.25 C 16.417969 3.578125 17.152344 2.976562 17.941406 2.445312 C 18.734375 1.917969 19.574219 1.46875 20.453125 1.105469 C 21.332031 0.738281 22.242188 0.464844 23.175781 0.277344 C 24.109375 0.09375 25.054688 0 26.007812 0 C 26.960938 0 27.90625 0.09375 28.839844 0.277344 C 29.773438 0.464844 30.683594 0.738281 31.5625 1.105469 C 32.445312 1.46875 33.28125 1.917969 34.074219 2.445312 C 34.867188 2.976562 35.597656 3.578125 36.273438 4.25 C 36.945312 4.925781 37.546875 5.660156 38.078125 6.453125 C 38.605469 7.242188 39.054688 8.082031 39.417969 8.960938 C 39.785156 9.839844 40.058594 10.75 40.246094 11.683594 C 40.429688 12.617188 40.523438 13.5625 40.523438 14.515625 C 40.523438 15.46875 40.429688 16.414062 40.242188 17.347656 C 40.054688 18.28125 39.78125 19.1875 39.414062 20.070312 C 39.050781 20.949219 38.601562 21.785156 38.074219 22.578125 C 37.542969 23.367188 36.941406 24.101562 36.269531 24.777344 C 35.59375 25.449219 34.859375 26.050781 34.070312 26.582031 C 33.277344 27.109375 32.441406 27.558594 31.558594 27.921875 C 30.679688 28.289062 29.773438 28.5625 28.839844 28.75 C 27.90625 28.9375 26.960938 29.03125 26.007812 29.03125 Z M 19.179688 25.5625 C 20.203125 26.195312 21.296875 26.679688 22.457031 27.007812 C 23.617188 27.339844 24.800781 27.503906 26.007812 27.503906 C 27.214844 27.503906 28.398438 27.339844 29.558594 27.007812 C 30.71875 26.679688 31.8125 26.195312 32.839844 25.5625 C 32.464844 23.660156 30.746094 16.609375 26.007812 16.609375 C 21.269531 16.609375 19.550781 23.660156 19.179688 25.5625 Z M 28.769531 15.738281 C 32.210938 17.488281 33.679688 22.308594 34.199219 24.59375 C 34.542969 24.3125 34.871094 24.015625 35.1875 23.703125 C 35.5 23.390625 35.796875 23.058594 36.078125 22.714844 C 36.359375 22.371094 36.621094 22.015625 36.863281 21.640625 C 37.109375 21.269531 37.332031 20.890625 37.535156 20.496094 C 37.742188 20.101562 37.925781 19.695312 38.089844 19.285156 C 38.25 18.871094 38.394531 18.449219 38.511719 18.023438 C 38.632812 17.597656 38.730469 17.164062 38.804688 16.726562 C 38.882812 16.289062 38.933594 15.847656 38.964844 15.40625 C 38.996094 14.960938 39.003906 14.519531 38.988281 14.074219 C 38.972656 13.632812 38.9375 13.1875 38.875 12.75 C 38.816406 12.308594 38.734375 11.875 38.628906 11.441406 C 38.523438 11.011719 38.394531 10.585938 38.246094 10.167969 C 38.097656 9.75 37.929688 9.339844 37.738281 8.9375 C 37.546875 8.539062 37.335938 8.148438 37.105469 7.769531 C 36.875 7.386719 36.628906 7.023438 36.359375 6.667969 C 36.089844 6.3125 35.804688 5.972656 35.503906 5.648438 C 35.199219 5.324219 34.878906 5.015625 34.546875 4.726562 C 34.210938 4.433594 33.863281 4.160156 33.5 3.902344 C 33.136719 3.648438 32.761719 3.410156 32.375 3.191406 C 31.988281 2.976562 31.589844 2.777344 31.183594 2.601562 C 30.777344 2.425781 30.363281 2.269531 29.9375 2.132812 C 29.515625 2 29.085938 1.886719 28.652344 1.796875 C 28.214844 1.707031 27.777344 1.636719 27.335938 1.59375 C 26.894531 1.546875 26.453125 1.523438 26.007812 1.523438 C 25.5625 1.523438 25.121094 1.546875 24.679688 1.59375 C 24.238281 1.636719 23.800781 1.707031 23.363281 1.796875 C 22.929688 1.886719 22.5 2 22.078125 2.132812 C 21.65625 2.269531 21.238281 2.425781 20.832031 2.601562 C 20.425781 2.777344 20.027344 2.976562 19.640625 3.191406 C 19.253906 3.410156 18.878906 3.648438 18.515625 3.902344 C 18.152344 4.160156 17.804688 4.433594 17.46875 4.726562 C 17.136719 5.015625 16.816406 5.324219 16.515625 5.648438 C 16.210938 5.976562 15.925781 6.3125 15.65625 6.667969 C 15.390625 7.023438 15.140625 7.386719 14.910156 7.769531 C 14.679688 8.148438 14.46875 8.539062 14.277344 8.9375 C 14.085938 9.339844 13.917969 9.75 13.769531 10.167969 C 13.621094 10.585938 13.492188 11.011719 13.386719 11.441406 C 13.28125 11.875 13.199219 12.308594 13.140625 12.75 C 13.078125 13.1875 13.042969 13.632812 13.027344 14.074219 C 13.011719 14.519531 13.019531 14.960938 13.050781 15.40625 C 13.082031 15.847656 13.132812 16.289062 13.210938 16.726562 C 13.285156 17.164062 13.382812 17.597656 13.503906 18.023438 C 13.625 18.449219 13.765625 18.871094 13.929688 19.285156 C 14.089844 19.695312 14.273438 20.101562 14.480469 20.496094 C 14.683594 20.890625 14.90625 21.269531 15.152344 21.640625 C 15.394531 22.015625 15.65625 22.371094 15.9375 22.714844 C 16.21875 23.058594 16.515625 23.390625 16.828125 23.703125 C 17.144531 24.015625 17.472656 24.3125 17.816406 24.59375 C 18.335938 22.3125 19.804688 17.488281 23.246094 15.738281 C 22.96875 15.542969 22.71875 15.324219 22.488281 15.074219 C 22.257812 14.824219 22.054688 14.554688 21.882812 14.265625 C 21.710938 13.976562 21.570312 13.667969 21.460938 13.347656 C 21.355469 13.027344 21.28125 12.699219 21.242188 12.363281 C 21.203125 12.027344 21.199219 11.691406 21.230469 11.355469 C 21.265625 11.019531 21.332031 10.6875 21.433594 10.367188 C 21.535156 10.042969 21.671875 9.734375 21.835938 9.441406 C 22.003906 9.148438 22.203125 8.875 22.425781 8.621094 C 22.652344 8.371094 22.898438 8.144531 23.171875 7.945312 C 23.445312 7.742188 23.738281 7.574219 24.046875 7.4375 C 24.355469 7.296875 24.675781 7.195312 25.003906 7.121094 C 25.335938 7.050781 25.667969 7.015625 26.007812 7.015625 C 26.347656 7.015625 26.679688 7.050781 27.011719 7.121094 C 27.34375 7.195312 27.660156 7.296875 27.96875 7.4375 C 28.277344 7.574219 28.570312 7.742188 28.84375 7.945312 C 29.117188 8.144531 29.363281 8.371094 29.589844 8.621094 C 29.816406 8.875 30.011719 9.148438 30.179688 9.441406 C 30.34375 9.734375 30.480469 10.042969 30.582031 10.367188 C 30.683594 10.6875 30.75 11.019531 30.785156 11.355469 C 30.816406 11.691406 30.8125 12.027344 30.773438 12.363281 C 30.734375 12.699219 30.664062 13.027344 30.554688 13.347656 C 30.445312 13.667969 30.304688 13.976562 30.132812 14.265625 C 29.960938 14.554688 29.757812 14.824219 29.527344 15.074219 C 29.300781 15.324219 29.046875 15.542969 28.769531 15.738281 Z M 26.007812 8.542969 C 25.574219 8.542969 25.15625 8.625 24.757812 8.789062 C 24.355469 8.957031 24.003906 9.191406 23.695312 9.5 C 23.390625 9.804688 23.152344 10.160156 22.988281 10.558594 C 22.820312 10.960938 22.738281 11.378906 22.738281 11.8125 C 22.738281 12.246094 22.820312 12.664062 22.988281 13.0625 C 23.152344 13.464844 23.390625 13.816406 23.695312 14.125 C 24.003906 14.429688 24.355469 14.667969 24.757812 14.832031 C 25.15625 15 25.574219 15.082031 26.007812 15.082031 C 26.441406 15.082031 26.859375 15 27.257812 14.832031 C 27.660156 14.667969 28.011719 14.429688 28.320312 14.125 C 28.625 13.816406 28.863281 13.464844 29.027344 13.0625 C 29.195312 12.664062 29.277344 12.246094 29.277344 11.8125 C 29.277344 11.378906 29.195312 10.960938 29.027344 10.5625 C 28.863281 10.160156 28.625 9.808594 28.320312 9.5 C 28.011719 9.195312 27.660156 8.957031 27.257812 8.792969 C 26.859375 8.625 26.441406 8.542969 26.007812 8.542969 Z M 26.007812 8.542969 " fill-opacity="1" fill-rule="nonzero"/></g></svg>