<svg xmlns="http://www.w3.org/2000/svg" xmlns:xlink="http://www.w3.org/1999/xlink" width="500" zoomAndPan="magnify" viewBox="0 0 375 187.499995" height="250" preserveAspectRatio="xMidYMid meet" version="1.0"><defs><g/><clipPath id="98be26ffef"><path d="M 0.5 0 L 374.5 0 L 374.5 187 L 0.5 187 Z M 0.5 0 " clip-rule="nonzero"/></clipPath><clipPath id="88176fc005"><path d="M 4.101562 63.1875 L 99.902344 63.1875 L 99.902344 124.640625 L 4.101562 124.640625 Z M 4.101562 63.1875 " clip-rule="nonzero"/></clipPath><clipPath id="d508b75f2d"><path d="M 4.101562 77 L 17 77 L 17 111 L 4.101562 111 Z M 4.101562 77 " clip-rule="nonzero"/></clipPath><clipPath id="eb640a5c64"><path d="M 86 77 L 99.902344 77 L 99.902344 111 L 86 111 Z M 86 77 " clip-rule="nonzero"/></clipPath><clipPath id="9659bf8130"><path d="M 4.101562 87 L 10 87 L 10 101 L 4.101562 101 Z M 4.101562 87 " clip-rule="nonzero"/></clipPath><clipPath id="8f8c2b514d"><path d="M 94 87 L 99.902344 87 L 99.902344 101 L 94 101 Z M 94 87 " clip-rule="nonzero"/></clipPath><clipPath id="cd3f1d458d"><path d="M 51 63.1875 L 53 63.1875 L 53 124.640625 L 51 124.640625 Z M 51 63.1875 " clip-rule="nonzero"/></clipPath><clipPath id="dff65f9b63"><path d="M 4.101562 63.1875 L 8 63.1875 L 8 67 L 4.101562 67 Z M 4.101562 63.1875 " clip-rule="nonzero"/></clipPath><clipPath id="2cc0dca6cd"><path d="M 96 63.1875 L 99.902344 63.1875 L 99.902344 67 L 96 67 Z M 96 63.1875 " clip-rule="nonzero"/></clipPath><clipPath id="e199040fb6"><path d="M 96 63.1875 L 97 63.1875 L 97 64 L 96 64 Z M 96 63.1875 " clip-rule="nonzero"/></clipPath><clipPath id="7a0ceebf7f"><path d="M 96 120 L 99.902344 120 L 99.902344 124 L 96 124 Z M 96 120 " clip-rule="nonzero"/></clipPath><clipPath id="5516435689"><path d="M 4.101562 120 L 8 120 L 8 124 L 4.101562 124 Z M 4.101562 120 " clip-rule="nonzero"/></clipPath></defs><g clip-path="url(#98be26ffef)"><path fill="#ffffff" d="M 0.5 0 L 374.5 0 L 374.5 187 L 0.5 187 Z M 0.5 0 " fill-opacity="1" fill-rule="nonzero"/><path fill="#ffffff" d="M 0.5 0 L 374.5 0 L 374.5 187 L 0.5 187 Z M 0.5 0 " fill-opacity="1" fill-rule="nonzero"/></g><path fill="#000000" d="M 16.78125 88.421875 C 18.296875 89.507812 19.320312 91.5625 19.320312 93.914062 C 19.320312 96.265625 18.296875 98.320312 16.78125 99.410156 L 16.78125 98.722656 C 18.03125 97.699219 18.855469 95.925781 18.855469 93.914062 C 18.855469 91.902344 18.03125 90.128906 16.78125 89.105469 Z M 16.78125 88.421875 " fill-opacity="1" fill-rule="evenodd"/><path fill="#000000" d="M 87.285156 88.421875 C 85.769531 89.507812 84.746094 91.5625 84.746094 93.914062 C 84.746094 96.265625 85.769531 98.320312 87.285156 99.410156 L 87.285156 98.722656 C 86.039062 97.699219 85.214844 95.925781 85.214844 93.914062 C 85.214844 91.902344 86.039062 90.128906 87.285156 89.105469 Z M 87.285156 88.421875 " fill-opacity="1" fill-rule="evenodd"/><g clip-path="url(#88176fc005)"><path fill="#000000" d="M 99.863281 63.507812 C 99.863281 63.332031 99.722656 63.1875 99.550781 63.1875 L 4.453125 63.1875 C 4.277344 63.1875 4.136719 63.332031 4.136719 63.507812 L 4.136719 124.320312 C 4.136719 124.5 4.277344 124.640625 4.453125 124.640625 L 99.550781 124.640625 C 99.722656 124.640625 99.863281 124.5 99.863281 124.320312 Z M 99.234375 63.828125 L 99.234375 124 C 99.234375 124 4.765625 124 4.765625 124 C 4.765625 124 4.765625 68.554688 4.765625 63.828125 C 4.765625 63.828125 99.234375 63.828125 99.234375 63.828125 Z M 99.234375 63.828125 " fill-opacity="1" fill-rule="evenodd"/></g><g clip-path="url(#d508b75f2d)"><path fill="#000000" d="M 16.9375 77.949219 C 16.9375 77.773438 16.796875 77.628906 16.621094 77.628906 L 4.453125 77.628906 C 4.277344 77.628906 4.136719 77.773438 4.136719 77.949219 L 4.136719 109.878906 C 4.136719 110.054688 4.277344 110.199219 4.453125 110.199219 L 16.621094 110.199219 C 16.796875 110.199219 16.9375 110.054688 16.9375 109.878906 Z M 16.308594 78.269531 L 16.308594 109.558594 C 16.308594 109.558594 4.765625 109.558594 4.765625 109.558594 C 4.765625 109.558594 4.765625 81.585938 4.765625 78.269531 Z M 16.308594 78.269531 " fill-opacity="1" fill-rule="evenodd"/></g><g clip-path="url(#eb640a5c64)"><path fill="#000000" d="M 87.253906 77.628906 C 87.082031 77.628906 86.941406 77.773438 86.941406 77.949219 L 86.941406 109.878906 C 86.941406 110.054688 87.082031 110.199219 87.253906 110.199219 L 99.425781 110.199219 C 99.597656 110.199219 99.738281 110.054688 99.738281 109.878906 L 99.738281 77.949219 C 99.738281 77.773438 99.597656 77.628906 99.425781 77.628906 Z M 87.566406 78.269531 L 99.109375 78.269531 C 99.109375 78.269531 99.109375 109.558594 99.109375 109.558594 C 99.109375 109.558594 87.566406 109.558594 87.566406 109.558594 Z M 87.566406 78.269531 " fill-opacity="1" fill-rule="evenodd"/></g><g clip-path="url(#9659bf8130)"><path fill="#000000" d="M 9.027344 87.332031 C 9.027344 87.15625 8.886719 87.011719 8.714844 87.011719 L 4.453125 87.011719 C 4.277344 87.011719 4.136719 87.15625 4.136719 87.332031 L 4.136719 100.496094 C 4.136719 100.671875 4.277344 100.816406 4.453125 100.816406 L 8.714844 100.816406 C 8.886719 100.816406 9.027344 100.671875 9.027344 100.496094 Z M 8.398438 87.652344 L 8.398438 100.175781 C 8.398438 100.175781 4.765625 100.175781 4.765625 100.175781 C 4.765625 100.175781 4.765625 89.636719 4.765625 87.652344 Z M 8.398438 87.652344 " fill-opacity="1" fill-rule="evenodd"/></g><g clip-path="url(#8f8c2b514d)"><path fill="#000000" d="M 95.164062 87.011719 C 94.988281 87.011719 94.847656 87.15625 94.847656 87.332031 L 94.847656 100.496094 C 94.847656 100.671875 94.988281 100.816406 95.164062 100.816406 L 99.425781 100.816406 C 99.597656 100.816406 99.738281 100.671875 99.738281 100.496094 C 99.738281 100.496094 99.738281 87.332031 99.738281 87.332031 C 99.738281 87.15625 99.597656 87.011719 99.425781 87.011719 Z M 95.476562 87.652344 L 99.109375 87.652344 C 99.109375 87.652344 99.109375 100.175781 99.109375 100.175781 C 99.109375 100.175781 95.476562 100.175781 95.476562 100.175781 C 95.476562 100.175781 95.476562 87.652344 95.476562 87.652344 Z M 95.476562 87.652344 " fill-opacity="1" fill-rule="evenodd"/></g><path fill="#000000" d="M 52 81.457031 C 45.691406 81.457031 40.566406 86.683594 40.566406 93.125 C 40.566406 99.566406 45.691406 104.792969 52 104.792969 C 58.3125 104.792969 63.433594 99.566406 63.433594 93.125 C 63.433594 86.683594 58.3125 81.457031 52 81.457031 Z M 52 82.097656 C 57.964844 82.097656 62.808594 87.039062 62.808594 93.125 C 62.808594 99.210938 57.964844 104.152344 52 104.152344 C 46.035156 104.152344 41.195312 99.210938 41.195312 93.125 C 41.195312 87.039062 46.035156 82.097656 52 82.097656 Z M 52 82.097656 " fill-opacity="1" fill-rule="evenodd"/><g clip-path="url(#cd3f1d458d)"><path fill="#000000" d="M 51.675781 63.507812 L 51.675781 124.320312 C 51.675781 124.496094 51.816406 124.640625 51.988281 124.640625 C 52.164062 124.640625 52.304688 124.496094 52.304688 124.320312 L 52.304688 63.507812 C 52.304688 63.332031 52.164062 63.1875 51.988281 63.1875 C 51.816406 63.1875 51.675781 63.332031 51.675781 63.507812 Z M 51.675781 63.507812 " fill-opacity="1" fill-rule="evenodd"/></g><g clip-path="url(#dff65f9b63)"><path fill="#000000" d="M 7.777344 63.828125 C 7.628906 65.453125 6.359375 66.75 4.765625 66.902344 L 4.765625 66.257812 C 6.011719 66.109375 7.003906 65.101562 7.144531 63.828125 Z M 7.777344 63.828125 " fill-opacity="1" fill-rule="evenodd"/></g><g clip-path="url(#2cc0dca6cd)"><path fill="#000000" d="M 96.855469 63.828125 C 97 65.101562 97.988281 66.109375 99.234375 66.257812 L 99.234375 66.902344 C 97.640625 66.75 96.371094 65.453125 96.222656 63.828125 Z M 96.855469 63.828125 " fill-opacity="1" fill-rule="evenodd"/></g><g clip-path="url(#e199040fb6)"><path fill="#000000" d="M 96.855469 63.1875 C 96.84375 63.292969 96.835938 63.398438 96.835938 63.507812 C 96.835938 63.617188 96.84375 63.722656 96.855469 63.828125 L 96.222656 63.828125 C 96.214844 63.722656 96.210938 63.613281 96.210938 63.507812 C 96.210938 63.398438 96.214844 63.292969 96.222656 63.1875 Z M 96.855469 63.1875 " fill-opacity="1" fill-rule="evenodd"/></g><g clip-path="url(#7a0ceebf7f)"><path fill="#000000" d="M 99.234375 120.925781 L 99.234375 121.570312 C 97.988281 121.71875 97 122.730469 96.855469 124 L 96.222656 124 C 96.371094 122.375 97.640625 121.078125 99.234375 120.925781 Z M 99.234375 120.925781 " fill-opacity="1" fill-rule="evenodd"/></g><g clip-path="url(#5516435689)"><path fill="#000000" d="M 4.765625 120.925781 C 6.359375 121.078125 7.628906 122.375 7.777344 124 L 7.144531 124 C 7.003906 122.730469 6.011719 121.71875 4.765625 121.570312 Z M 4.765625 120.925781 " fill-opacity="1" fill-rule="evenodd"/></g><path fill="#000000" d="M 13.496094 93.914062 C 13.496094 94.132812 13.421875 94.316406 13.269531 94.472656 C 13.121094 94.625 12.9375 94.703125 12.722656 94.703125 C 12.511719 94.703125 12.328125 94.625 12.179688 94.472656 C 12.027344 94.316406 11.953125 94.132812 11.953125 93.914062 C 11.953125 93.695312 12.027344 93.511719 12.179688 93.355469 C 12.328125 93.203125 12.511719 93.125 12.722656 93.125 C 12.9375 93.125 13.121094 93.203125 13.269531 93.355469 C 13.421875 93.511719 13.496094 93.695312 13.496094 93.914062 Z M 13.496094 93.914062 " fill-opacity="1" fill-rule="nonzero"/><path fill="#000000" d="M 53.246094 93.914062 C 53.246094 94.082031 53.214844 94.246094 53.152344 94.398438 C 53.089844 94.554688 53 94.695312 52.882812 94.8125 C 52.765625 94.933594 52.628906 95.023438 52.476562 95.089844 C 52.324219 95.152344 52.164062 95.183594 52 95.183594 C 51.835938 95.183594 51.675781 95.152344 51.523438 95.089844 C 51.371094 95.023438 51.238281 94.933594 51.121094 94.8125 C 51.003906 94.695312 50.914062 94.554688 50.851562 94.398438 C 50.785156 94.246094 50.753906 94.082031 50.753906 93.914062 C 50.753906 93.746094 50.785156 93.582031 50.851562 93.425781 C 50.914062 93.273438 51.003906 93.132812 51.121094 93.015625 C 51.238281 92.894531 51.371094 92.804688 51.523438 92.738281 C 51.675781 92.675781 51.835938 92.644531 52 92.644531 C 52.164062 92.644531 52.324219 92.675781 52.476562 92.738281 C 52.628906 92.804688 52.765625 92.894531 52.882812 93.015625 C 53 93.132812 53.089844 93.273438 53.152344 93.425781 C 53.214844 93.582031 53.246094 93.746094 53.246094 93.914062 Z M 53.246094 93.914062 " fill-opacity="1" fill-rule="nonzero"/><path fill="#000000" d="M 91.8125 93.914062 C 91.8125 94.132812 91.738281 94.316406 91.585938 94.472656 C 91.4375 94.625 91.253906 94.703125 91.039062 94.703125 C 90.828125 94.703125 90.644531 94.625 90.496094 94.472656 C 90.34375 94.316406 90.269531 94.132812 90.269531 93.914062 C 90.269531 93.695312 90.34375 93.511719 90.496094 93.355469 C 90.644531 93.203125 90.828125 93.125 91.039062 93.125 C 91.253906 93.125 91.4375 93.203125 91.585938 93.355469 C 91.738281 93.511719 91.8125 93.695312 91.8125 93.914062 Z M 91.8125 93.914062 " fill-opacity="1" fill-rule="nonzero"/><g fill="#000000" fill-opacity="1"><g transform="translate(121.441005, 107.092624)"><g><path d="M 38.265625 -32.953125 L 38.265625 0 L 32.859375 0 L 32.859375 -22.578125 L 22.8125 0 L 19.0625 0 L 8.96875 -22.578125 L 8.96875 0 L 3.5625 0 L 3.5625 -32.953125 L 9.390625 -32.953125 L 20.953125 -7.109375 L 32.484375 -32.953125 Z M 38.265625 -32.953125 "/></g></g></g><g fill="#000000" fill-opacity="1"><g transform="translate(162.413356, 107.092624)"><g><path d="M 17.078125 0 L 11.671875 0 L 11.671875 -11.953125 L 0.71875 -32.953125 L 6.734375 -32.953125 L 14.328125 -16.875 L 21.90625 -32.953125 L 27.984375 -32.953125 L 17.078125 -11.953125 Z M 17.078125 0 "/></g></g></g><g fill="#000000" fill-opacity="1"><g transform="translate(190.249801, 107.092624)"><g/></g></g><g fill="#000000" fill-opacity="1"><g transform="translate(203.622522, 107.092624)"><g><path d="M 38.265625 -32.953125 L 38.265625 0 L 32.859375 0 L 32.859375 -22.578125 L 22.8125 0 L 19.0625 0 L 8.96875 -22.578125 L 8.96875 0 L 3.5625 0 L 3.5625 -32.953125 L 9.390625 -32.953125 L 20.953125 -7.109375 L 32.484375 -32.953125 Z M 38.265625 -32.953125 "/></g></g></g><g fill="#000000" fill-opacity="1"><g transform="translate(244.594876, 107.092624)"><g><path d="M 25.796875 0 L 23.421875 -6.734375 L 9.625 -6.734375 L 7.25 0 L 1.609375 0 L 13.421875 -33 L 19.6875 -33 L 31.484375 0 Z M 11.09375 -10.953125 L 21.953125 -10.953125 L 16.546875 -26.46875 Z M 11.09375 -10.953125 "/></g></g></g><g fill="#000000" fill-opacity="1"><g transform="translate(276.794144, 107.092624)"><g><path d="M 1.84375 -28.734375 L 1.84375 -32.953125 L 24.84375 -32.953125 L 24.84375 -28.734375 L 16.078125 -28.734375 L 16.078125 0 L 10.671875 0 L 10.671875 -28.734375 Z M 1.84375 -28.734375 "/></g></g></g><g fill="#000000" fill-opacity="1"><g transform="translate(302.686268, 107.092624)"><g><path d="M 18.59375 0.28125 C 13.882812 0.28125 9.898438 -1.296875 6.640625 -4.453125 C 3.378906 -7.617188 1.75 -11.644531 1.75 -16.53125 C 1.75 -21.414062 3.378906 -25.445312 6.640625 -28.625 C 9.898438 -31.800781 13.882812 -33.390625 18.59375 -33.390625 C 22.101562 -33.390625 25.222656 -32.523438 27.953125 -30.796875 C 30.691406 -29.078125 32.675781 -26.632812 33.90625 -23.46875 L 27.40625 -23.46875 C 25.632812 -26.789062 22.695312 -28.453125 18.59375 -28.453125 C 15.269531 -28.453125 12.554688 -27.359375 10.453125 -25.171875 C 8.347656 -22.992188 7.296875 -20.109375 7.296875 -16.515625 C 7.296875 -12.929688 8.347656 -10.046875 10.453125 -7.859375 C 12.554688 -5.679688 15.269531 -4.59375 18.59375 -4.59375 C 22.695312 -4.59375 25.632812 -6.253906 27.40625 -9.578125 L 33.90625 -9.578125 C 32.675781 -6.421875 30.691406 -3.988281 27.953125 -2.28125 C 25.222656 -0.570312 22.101562 0.28125 18.59375 0.28125 Z M 18.59375 0.28125 "/></g></g></g><g fill="#63b2ad" fill-opacity="1"><g transform="translate(338.495671, 107.092624)"><g><path d="M 24.46875 -32.953125 L 29.875 -32.953125 L 29.875 0 L 24.46875 0 L 24.46875 -14.5625 L 8.96875 -14.5625 L 8.96875 0 L 3.5625 0 L 3.5625 -32.953125 L 8.96875 -32.953125 L 8.96875 -18.734375 L 24.46875 -18.734375 Z M 24.46875 -32.953125 "/></g></g></g></svg>