<svg xmlns="http://www.w3.org/2000/svg" xmlns:xlink="http://www.w3.org/1999/xlink" width="70" zoomAndPan="magnify" viewBox="0 0 52.5 30.000001" height="40" preserveAspectRatio="xMidYMid meet" version="1.0"><defs><g/><clipPath id="e8318c04c4"><path d="M 1.621094 11.710938 L 13.609375 11.710938 L 13.609375 19.402344 L 1.621094 19.402344 Z M 1.621094 11.710938 " clip-rule="nonzero"/></clipPath><clipPath id="65eb8ebfe6"><path d="M 1.621094 13 L 4 13 L 4 18 L 1.621094 18 Z M 1.621094 13 " clip-rule="nonzero"/></clipPath><clipPath id="338ddcc96a"><path d="M 11 13 L 13.609375 13 L 13.609375 18 L 11 18 Z M 11 13 " clip-rule="nonzero"/></clipPath><clipPath id="bb8f253973"><path d="M 1.621094 14 L 3 14 L 3 17 L 1.621094 17 Z M 1.621094 14 " clip-rule="nonzero"/></clipPath><clipPath id="d896d04408"><path d="M 12 14 L 13.609375 14 L 13.609375 17 L 12 17 Z M 12 14 " clip-rule="nonzero"/></clipPath><clipPath id="a2b72b42e9"><path d="M 7 11.710938 L 8 11.710938 L 8 19.402344 L 7 19.402344 Z M 7 11.710938 " clip-rule="nonzero"/></clipPath><clipPath id="a17c4b60f5"><path d="M 1.621094 11.710938 L 3 11.710938 L 3 13 L 1.621094 13 Z M 1.621094 11.710938 " clip-rule="nonzero"/></clipPath><clipPath id="996d6fd302"><path d="M 13 11.710938 L 13.609375 11.710938 L 13.609375 13 L 13 13 Z M 13 11.710938 " clip-rule="nonzero"/></clipPath><clipPath id="4cf1b4ec6a"><path d="M 13 11.710938 L 13.609375 11.710938 L 13.609375 12 L 13 12 Z M 13 11.710938 " clip-rule="nonzero"/></clipPath><clipPath id="2e3e945329"><path d="M 13 18 L 13.609375 18 L 13.609375 19.402344 L 13 19.402344 Z M 13 18 " clip-rule="nonzero"/></clipPath><clipPath id="43e900ac00"><path d="M 1.621094 18 L 3 18 L 3 19.402344 L 1.621094 19.402344 Z M 1.621094 18 " clip-rule="nonzero"/></clipPath></defs><path fill="#000000" d="M 3.207031 14.867188 C 3.398438 15.003906 3.527344 15.261719 3.527344 15.558594 C 3.527344 15.851562 3.398438 16.109375 3.207031 16.246094 L 3.207031 16.160156 C 3.363281 16.03125 3.46875 15.808594 3.46875 15.558594 C 3.46875 15.304688 3.363281 15.082031 3.207031 14.953125 Z M 3.207031 14.867188 " fill-opacity="1" fill-rule="evenodd"/><path fill="#000000" d="M 12.03125 14.867188 C 11.84375 15.003906 11.714844 15.261719 11.714844 15.558594 C 11.714844 15.851562 11.84375 16.109375 12.03125 16.246094 L 12.03125 16.160156 C 11.875 16.03125 11.773438 15.808594 11.773438 15.558594 C 11.773438 15.304688 11.875 15.082031 12.03125 14.953125 Z M 12.03125 14.867188 " fill-opacity="1" fill-rule="evenodd"/><g clip-path="url(#e8318c04c4)"><path fill="#000000" d="M 13.605469 11.75 C 13.605469 11.730469 13.589844 11.710938 13.566406 11.710938 L 1.664062 11.710938 C 1.644531 11.710938 1.625 11.730469 1.625 11.75 L 1.625 19.363281 C 1.625 19.382812 1.644531 19.402344 1.664062 19.402344 L 13.566406 19.402344 C 13.589844 19.402344 13.605469 19.382812 13.605469 19.363281 Z M 13.527344 11.792969 L 13.527344 19.324219 C 13.527344 19.324219 1.703125 19.324219 1.703125 19.324219 C 1.703125 19.324219 1.703125 12.382812 1.703125 11.792969 C 1.703125 11.792969 13.527344 11.792969 13.527344 11.792969 Z M 13.527344 11.792969 " fill-opacity="1" fill-rule="evenodd"/></g><g clip-path="url(#65eb8ebfe6)"><path fill="#000000" d="M 3.226562 13.558594 C 3.226562 13.535156 3.210938 13.519531 3.1875 13.519531 L 1.664062 13.519531 C 1.644531 13.519531 1.625 13.535156 1.625 13.558594 L 1.625 17.554688 C 1.625 17.578125 1.644531 17.59375 1.664062 17.59375 L 3.1875 17.59375 C 3.210938 17.59375 3.226562 17.578125 3.226562 17.554688 Z M 3.148438 13.597656 L 3.148438 17.515625 C 3.148438 17.515625 1.703125 17.515625 1.703125 17.515625 C 1.703125 17.515625 1.703125 14.015625 1.703125 13.597656 Z M 3.148438 13.597656 " fill-opacity="1" fill-rule="evenodd"/></g><g clip-path="url(#338ddcc96a)"><path fill="#000000" d="M 12.027344 13.519531 C 12.007812 13.519531 11.988281 13.535156 11.988281 13.558594 L 11.988281 17.554688 C 11.988281 17.578125 12.007812 17.59375 12.027344 17.59375 L 13.550781 17.59375 C 13.574219 17.59375 13.589844 17.578125 13.589844 17.554688 L 13.589844 13.558594 C 13.589844 13.535156 13.574219 13.519531 13.550781 13.519531 Z M 12.066406 13.597656 L 13.511719 13.597656 C 13.511719 13.597656 13.511719 17.515625 13.511719 17.515625 C 13.511719 17.515625 12.066406 17.515625 12.066406 17.515625 Z M 12.066406 13.597656 " fill-opacity="1" fill-rule="evenodd"/></g><g clip-path="url(#bb8f253973)"><path fill="#000000" d="M 2.238281 14.734375 C 2.238281 14.710938 2.21875 14.691406 2.199219 14.691406 L 1.664062 14.691406 C 1.644531 14.691406 1.625 14.710938 1.625 14.734375 L 1.625 16.378906 C 1.625 16.402344 1.644531 16.421875 1.664062 16.421875 L 2.199219 16.421875 C 2.21875 16.421875 2.238281 16.402344 2.238281 16.378906 Z M 2.160156 14.773438 L 2.160156 16.339844 C 2.160156 16.339844 1.703125 16.339844 1.703125 16.339844 C 1.703125 16.339844 1.703125 15.023438 1.703125 14.773438 Z M 2.160156 14.773438 " fill-opacity="1" fill-rule="evenodd"/></g><g clip-path="url(#d896d04408)"><path fill="#000000" d="M 13.019531 14.691406 C 12.996094 14.691406 12.980469 14.710938 12.980469 14.734375 L 12.980469 16.378906 C 12.980469 16.402344 12.996094 16.421875 13.019531 16.421875 L 13.550781 16.421875 C 13.574219 16.421875 13.589844 16.402344 13.589844 16.378906 C 13.589844 16.378906 13.589844 14.734375 13.589844 14.734375 C 13.589844 14.710938 13.574219 14.691406 13.550781 14.691406 Z M 13.058594 14.773438 L 13.511719 14.773438 C 13.511719 14.773438 13.511719 16.339844 13.511719 16.339844 C 13.511719 16.339844 13.058594 16.339844 13.058594 16.339844 C 13.058594 16.339844 13.058594 14.773438 13.058594 14.773438 Z M 13.058594 14.773438 " fill-opacity="1" fill-rule="evenodd"/></g><path fill="#000000" d="M 7.617188 13.996094 C 6.824219 13.996094 6.183594 14.652344 6.183594 15.457031 C 6.183594 16.265625 6.824219 16.917969 7.617188 16.917969 C 8.40625 16.917969 9.046875 16.265625 9.046875 15.457031 C 9.046875 14.652344 8.40625 13.996094 7.617188 13.996094 Z M 7.617188 14.078125 C 8.363281 14.078125 8.96875 14.695312 8.96875 15.457031 C 8.96875 16.21875 8.363281 16.839844 7.617188 16.839844 C 6.871094 16.839844 6.261719 16.21875 6.261719 15.457031 C 6.261719 14.695312 6.871094 14.078125 7.617188 14.078125 Z M 7.617188 14.078125 " fill-opacity="1" fill-rule="evenodd"/><g clip-path="url(#a2b72b42e9)"><path fill="#000000" d="M 7.574219 11.75 L 7.574219 19.363281 C 7.574219 19.382812 7.59375 19.402344 7.613281 19.402344 C 7.636719 19.402344 7.652344 19.382812 7.652344 19.363281 L 7.652344 11.75 C 7.652344 11.730469 7.636719 11.710938 7.613281 11.710938 C 7.59375 11.710938 7.574219 11.730469 7.574219 11.75 Z M 7.574219 11.75 " fill-opacity="1" fill-rule="evenodd"/></g><g clip-path="url(#a17c4b60f5)"><path fill="#000000" d="M 2.082031 11.792969 C 2.0625 11.996094 1.902344 12.15625 1.703125 12.175781 L 1.703125 12.09375 C 1.859375 12.078125 1.984375 11.949219 2 11.792969 Z M 2.082031 11.792969 " fill-opacity="1" fill-rule="evenodd"/></g><g clip-path="url(#996d6fd302)"><path fill="#000000" d="M 13.230469 11.792969 C 13.246094 11.949219 13.371094 12.078125 13.527344 12.09375 L 13.527344 12.175781 C 13.328125 12.15625 13.167969 11.996094 13.152344 11.792969 Z M 13.230469 11.792969 " fill-opacity="1" fill-rule="evenodd"/></g><g clip-path="url(#4cf1b4ec6a)"><path fill="#000000" d="M 13.230469 11.710938 C 13.226562 11.722656 13.226562 11.738281 13.226562 11.75 C 13.226562 11.765625 13.226562 11.777344 13.230469 11.792969 L 13.152344 11.792969 C 13.148438 11.777344 13.148438 11.765625 13.148438 11.75 C 13.148438 11.738281 13.148438 11.722656 13.152344 11.710938 Z M 13.230469 11.710938 " fill-opacity="1" fill-rule="evenodd"/></g><g clip-path="url(#2e3e945329)"><path fill="#000000" d="M 13.527344 18.9375 L 13.527344 19.019531 C 13.371094 19.035156 13.246094 19.164062 13.230469 19.324219 L 13.152344 19.324219 C 13.167969 19.117188 13.328125 18.957031 13.527344 18.9375 Z M 13.527344 18.9375 " fill-opacity="1" fill-rule="evenodd"/></g><g clip-path="url(#43e900ac00)"><path fill="#000000" d="M 1.703125 18.9375 C 1.902344 18.957031 2.0625 19.117188 2.082031 19.324219 L 2 19.324219 C 1.984375 19.164062 1.859375 19.035156 1.703125 19.019531 Z M 1.703125 18.9375 " fill-opacity="1" fill-rule="evenodd"/></g><path fill="#000000" d="M 2.796875 15.558594 C 2.796875 15.621094 2.765625 15.65625 2.699219 15.65625 C 2.636719 15.65625 2.601562 15.621094 2.601562 15.558594 C 2.601562 15.492188 2.636719 15.457031 2.699219 15.457031 C 2.765625 15.457031 2.796875 15.492188 2.796875 15.558594 Z M 2.796875 15.558594 " fill-opacity="1" fill-rule="nonzero"/><path fill="#000000" d="M 7.773438 15.558594 C 7.773438 15.664062 7.71875 15.714844 7.617188 15.714844 C 7.511719 15.714844 7.460938 15.664062 7.460938 15.558594 C 7.460938 15.449219 7.511719 15.398438 7.617188 15.398438 C 7.71875 15.398438 7.773438 15.449219 7.773438 15.558594 Z M 7.773438 15.558594 " fill-opacity="1" fill-rule="nonzero"/><path fill="#000000" d="M 12.597656 15.558594 C 12.597656 15.621094 12.566406 15.65625 12.503906 15.65625 C 12.4375 15.65625 12.40625 15.621094 12.40625 15.558594 C 12.40625 15.492188 12.4375 15.457031 12.503906 15.457031 C 12.566406 15.457031 12.597656 15.492188 12.597656 15.558594 Z M 12.597656 15.558594 " fill-opacity="1" fill-rule="nonzero"/><g fill="#000000" fill-opacity="1"><g transform="translate(16.303357, 17.394542)"><g><path d="M 4.796875 -4.125 L 4.796875 0 L 4.109375 0 L 4.109375 -2.828125 L 2.859375 0 L 2.390625 0 L 1.125 -2.828125 L 1.125 0 L 0.453125 0 L 0.453125 -4.125 L 1.171875 -4.125 L 2.625 -0.890625 L 4.0625 -4.125 Z M 4.796875 -4.125 "/></g></g></g><g fill="#000000" fill-opacity="1"><g transform="translate(21.432035, 17.394542)"><g><path d="M 2.140625 0 L 1.453125 0 L 1.453125 -1.5 L 0.09375 -4.125 L 0.84375 -4.125 L 1.796875 -2.109375 L 2.75 -4.125 L 3.5 -4.125 L 2.140625 -1.5 Z M 2.140625 0 "/></g></g></g><g fill="#000000" fill-opacity="1"><g transform="translate(24.916442, 17.394542)"><g/></g></g><g fill="#000000" fill-opacity="1"><g transform="translate(26.590367, 17.394542)"><g><path d="M 4.796875 -4.125 L 4.796875 0 L 4.109375 0 L 4.109375 -2.828125 L 2.859375 0 L 2.390625 0 L 1.125 -2.828125 L 1.125 0 L 0.453125 0 L 0.453125 -4.125 L 1.171875 -4.125 L 2.625 -0.890625 L 4.0625 -4.125 Z M 4.796875 -4.125 "/></g></g></g><g fill="#000000" fill-opacity="1"><g transform="translate(31.719046, 17.394542)"><g><path d="M 3.234375 0 L 2.9375 -0.84375 L 1.203125 -0.84375 L 0.90625 0 L 0.203125 0 L 1.6875 -4.125 L 2.46875 -4.125 L 3.9375 0 Z M 1.390625 -1.375 L 2.75 -1.375 L 2.078125 -3.3125 Z M 1.390625 -1.375 "/></g></g></g><g fill="#000000" fill-opacity="1"><g transform="translate(35.749564, 17.394542)"><g><path d="M 0.234375 -3.59375 L 0.234375 -4.125 L 3.109375 -4.125 L 3.109375 -3.59375 L 2.015625 -3.59375 L 2.015625 0 L 1.34375 0 L 1.34375 -3.59375 Z M 0.234375 -3.59375 "/></g></g></g><g fill="#000000" fill-opacity="1"><g transform="translate(38.990594, 17.394542)"><g><path d="M 2.328125 0.03125 C 1.734375 0.03125 1.234375 -0.164062 0.828125 -0.5625 C 0.421875 -0.957031 0.21875 -1.457031 0.21875 -2.0625 C 0.21875 -2.675781 0.421875 -3.179688 0.828125 -3.578125 C 1.234375 -3.984375 1.734375 -4.1875 2.328125 -4.1875 C 2.765625 -4.1875 3.15625 -4.078125 3.5 -3.859375 C 3.84375 -3.640625 4.09375 -3.332031 4.25 -2.9375 L 3.4375 -2.9375 C 3.207031 -3.351562 2.835938 -3.5625 2.328125 -3.5625 C 1.910156 -3.5625 1.570312 -3.425781 1.3125 -3.15625 C 1.050781 -2.882812 0.921875 -2.519531 0.921875 -2.0625 C 0.921875 -1.613281 1.050781 -1.253906 1.3125 -0.984375 C 1.570312 -0.710938 1.910156 -0.578125 2.328125 -0.578125 C 2.835938 -0.578125 3.207031 -0.785156 3.4375 -1.203125 L 4.25 -1.203125 C 4.09375 -0.804688 3.84375 -0.5 3.5 -0.28125 C 3.15625 -0.0703125 2.765625 0.03125 2.328125 0.03125 Z M 2.328125 0.03125 "/></g></g></g><g fill="#2ba84a" fill-opacity="1"><g transform="translate(43.473601, 17.394542)"><g><path d="M 3.0625 -4.125 L 3.734375 -4.125 L 3.734375 0 L 3.0625 0 L 3.0625 -1.828125 L 1.125 -1.828125 L 1.125 0 L 0.453125 0 L 0.453125 -4.125 L 1.125 -4.125 L 1.125 -2.34375 L 3.0625 -2.34375 Z M 3.0625 -4.125 "/></g></g></g></svg>