<svg xmlns="http://www.w3.org/2000/svg" xmlns:xlink="http://www.w3.org/1999/xlink" width="90" zoomAndPan="magnify" viewBox="0 0 67.5 37.5" height="50" preserveAspectRatio="xMidYMid meet" version="1.0"><defs><g/><clipPath id="76847b399e"><path d="M 1.164062 14.605469 L 17.125 14.605469 L 17.125 24.84375 L 1.164062 24.84375 Z M 1.164062 14.605469 " clip-rule="nonzero"/></clipPath><clipPath id="68f1695db1"><path d="M 1.164062 17 L 4 17 L 4 23 L 1.164062 23 Z M 1.164062 17 " clip-rule="nonzero"/></clipPath><clipPath id="07f17dd30e"><path d="M 14 17 L 17.125 17 L 17.125 23 L 14 23 Z M 14 17 " clip-rule="nonzero"/></clipPath><clipPath id="0bba0f8801"><path d="M 1.164062 18 L 2 18 L 2 21 L 1.164062 21 Z M 1.164062 18 " clip-rule="nonzero"/></clipPath><clipPath id="f742f0920f"><path d="M 16 18 L 17.125 18 L 17.125 21 L 16 21 Z M 16 18 " clip-rule="nonzero"/></clipPath><clipPath id="3fcc8aeb48"><path d="M 9 14.605469 L 10 14.605469 L 10 24.84375 L 9 24.84375 Z M 9 14.605469 " clip-rule="nonzero"/></clipPath><clipPath id="7976ee8098"><path d="M 1.164062 14.605469 L 2 14.605469 L 2 16 L 1.164062 16 Z M 1.164062 14.605469 " clip-rule="nonzero"/></clipPath><clipPath id="f155a02d96"><path d="M 16 14.605469 L 17.125 14.605469 L 17.125 16 L 16 16 Z M 16 14.605469 " clip-rule="nonzero"/></clipPath><clipPath id="d881910b07"><path d="M 16 14.605469 L 17 14.605469 L 17 15 L 16 15 Z M 16 14.605469 " clip-rule="nonzero"/></clipPath><clipPath id="d4a96f165f"><path d="M 16 24 L 17.125 24 L 17.125 24.84375 L 16 24.84375 Z M 16 24 " clip-rule="nonzero"/></clipPath><clipPath id="83c484c1a1"><path d="M 1.164062 24 L 2 24 L 2 24.84375 L 1.164062 24.84375 Z M 1.164062 24 " clip-rule="nonzero"/></clipPath></defs><path fill="#000000" d="M 3.277344 18.8125 C 3.527344 18.992188 3.699219 19.335938 3.699219 19.726562 C 3.699219 20.117188 3.527344 20.460938 3.277344 20.640625 L 3.277344 20.527344 C 3.484375 20.355469 3.621094 20.0625 3.621094 19.726562 C 3.621094 19.390625 3.484375 19.09375 3.277344 18.925781 Z M 3.277344 18.8125 " fill-opacity="1" fill-rule="evenodd"/><path fill="#000000" d="M 15.023438 18.8125 C 14.769531 18.992188 14.597656 19.335938 14.597656 19.726562 C 14.597656 20.117188 14.769531 20.460938 15.023438 20.640625 L 15.023438 20.527344 C 14.816406 20.355469 14.675781 20.0625 14.675781 19.726562 C 14.675781 19.390625 14.816406 19.09375 15.023438 18.925781 Z M 15.023438 18.8125 " fill-opacity="1" fill-rule="evenodd"/><g clip-path="url(#76847b399e)"><path fill="#000000" d="M 17.117188 14.660156 C 17.117188 14.628906 17.09375 14.605469 17.066406 14.605469 L 1.222656 14.605469 C 1.191406 14.605469 1.167969 14.628906 1.167969 14.660156 L 1.167969 24.792969 C 1.167969 24.820312 1.191406 24.84375 1.222656 24.84375 L 17.066406 24.84375 C 17.09375 24.84375 17.117188 24.820312 17.117188 24.792969 Z M 17.011719 14.714844 L 17.011719 24.738281 C 17.011719 24.738281 1.273438 24.738281 1.273438 24.738281 C 1.273438 24.738281 1.273438 15.5 1.273438 14.714844 C 1.273438 14.714844 17.011719 14.714844 17.011719 14.714844 Z M 17.011719 14.714844 " fill-opacity="1" fill-rule="evenodd"/></g><g clip-path="url(#68f1695db1)"><path fill="#000000" d="M 3.300781 17.066406 C 3.300781 17.035156 3.277344 17.011719 3.25 17.011719 L 1.222656 17.011719 C 1.191406 17.011719 1.167969 17.035156 1.167969 17.066406 L 1.167969 22.386719 C 1.167969 22.414062 1.191406 22.4375 1.222656 22.4375 L 3.25 22.4375 C 3.277344 22.4375 3.300781 22.414062 3.300781 22.386719 Z M 3.195312 17.121094 L 3.195312 22.332031 C 3.195312 22.332031 1.273438 22.332031 1.273438 22.332031 C 1.273438 22.332031 1.273438 17.671875 1.273438 17.121094 Z M 3.195312 17.121094 " fill-opacity="1" fill-rule="evenodd"/></g><g clip-path="url(#07f17dd30e)"><path fill="#000000" d="M 15.015625 17.011719 C 14.988281 17.011719 14.964844 17.035156 14.964844 17.066406 L 14.964844 22.386719 C 14.964844 22.414062 14.988281 22.4375 15.015625 22.4375 L 17.042969 22.4375 C 17.074219 22.4375 17.097656 22.414062 17.097656 22.386719 L 17.097656 17.066406 C 17.097656 17.035156 17.074219 17.011719 17.042969 17.011719 Z M 15.070312 17.121094 L 16.992188 17.121094 C 16.992188 17.121094 16.992188 22.332031 16.992188 22.332031 C 16.992188 22.332031 15.070312 22.332031 15.070312 22.332031 Z M 15.070312 17.121094 " fill-opacity="1" fill-rule="evenodd"/></g><g clip-path="url(#0bba0f8801)"><path fill="#000000" d="M 1.984375 18.628906 C 1.984375 18.601562 1.960938 18.574219 1.933594 18.574219 L 1.222656 18.574219 C 1.191406 18.574219 1.167969 18.601562 1.167969 18.628906 L 1.167969 20.824219 C 1.167969 20.851562 1.191406 20.875 1.222656 20.875 L 1.933594 20.875 C 1.960938 20.875 1.984375 20.851562 1.984375 20.824219 Z M 1.878906 18.683594 L 1.878906 20.769531 C 1.878906 20.769531 1.273438 20.769531 1.273438 20.769531 C 1.273438 20.769531 1.273438 19.011719 1.273438 18.683594 Z M 1.878906 18.683594 " fill-opacity="1" fill-rule="evenodd"/></g><g clip-path="url(#f742f0920f)"><path fill="#000000" d="M 16.335938 18.574219 C 16.304688 18.574219 16.28125 18.601562 16.28125 18.628906 L 16.28125 20.824219 C 16.28125 20.851562 16.304688 20.875 16.335938 20.875 L 17.042969 20.875 C 17.074219 20.875 17.097656 20.851562 17.097656 20.824219 C 17.097656 20.824219 17.097656 18.628906 17.097656 18.628906 C 17.097656 18.601562 17.074219 18.574219 17.042969 18.574219 Z M 16.386719 18.683594 L 16.992188 18.683594 C 16.992188 18.683594 16.992188 20.769531 16.992188 20.769531 C 16.992188 20.769531 16.386719 20.769531 16.386719 20.769531 C 16.386719 20.769531 16.386719 18.683594 16.386719 18.683594 Z M 16.386719 18.683594 " fill-opacity="1" fill-rule="evenodd"/></g><path fill="#000000" d="M 9.144531 17.648438 C 8.09375 17.648438 7.238281 18.523438 7.238281 19.59375 C 7.238281 20.667969 8.09375 21.539062 9.144531 21.539062 C 10.195312 21.539062 11.046875 20.667969 11.046875 19.59375 C 11.046875 18.523438 10.195312 17.648438 9.144531 17.648438 Z M 9.144531 17.757812 C 10.136719 17.757812 10.945312 18.582031 10.945312 19.59375 C 10.945312 20.609375 10.136719 21.433594 9.144531 21.433594 C 8.148438 21.433594 7.34375 20.609375 7.34375 19.59375 C 7.34375 18.582031 8.148438 17.757812 9.144531 17.757812 Z M 9.144531 17.757812 " fill-opacity="1" fill-rule="evenodd"/><g clip-path="url(#3fcc8aeb48)"><path fill="#000000" d="M 9.089844 14.660156 L 9.089844 24.792969 C 9.089844 24.820312 9.113281 24.84375 9.140625 24.84375 C 9.171875 24.84375 9.195312 24.820312 9.195312 24.792969 L 9.195312 14.660156 C 9.195312 14.628906 9.171875 14.605469 9.140625 14.605469 C 9.113281 14.605469 9.089844 14.628906 9.089844 14.660156 Z M 9.089844 14.660156 " fill-opacity="1" fill-rule="evenodd"/></g><g clip-path="url(#7976ee8098)"><path fill="#000000" d="M 1.777344 14.714844 C 1.75 14.984375 1.539062 15.199219 1.273438 15.226562 L 1.273438 15.117188 C 1.480469 15.09375 1.648438 14.925781 1.671875 14.714844 Z M 1.777344 14.714844 " fill-opacity="1" fill-rule="evenodd"/></g><g clip-path="url(#f155a02d96)"><path fill="#000000" d="M 16.617188 14.714844 C 16.640625 14.925781 16.804688 15.09375 17.011719 15.117188 L 17.011719 15.226562 C 16.746094 15.199219 16.535156 14.984375 16.511719 14.714844 Z M 16.617188 14.714844 " fill-opacity="1" fill-rule="evenodd"/></g><g clip-path="url(#d881910b07)"><path fill="#000000" d="M 16.617188 14.605469 C 16.613281 14.625 16.613281 14.640625 16.613281 14.660156 C 16.613281 14.679688 16.613281 14.695312 16.617188 14.714844 L 16.511719 14.714844 C 16.511719 14.695312 16.507812 14.679688 16.507812 14.660156 C 16.507812 14.640625 16.511719 14.625 16.511719 14.605469 Z M 16.617188 14.605469 " fill-opacity="1" fill-rule="evenodd"/></g><g clip-path="url(#d4a96f165f)"><path fill="#000000" d="M 17.011719 24.226562 L 17.011719 24.335938 C 16.804688 24.359375 16.640625 24.527344 16.617188 24.738281 L 16.511719 24.738281 C 16.535156 24.46875 16.746094 24.25 17.011719 24.226562 Z M 17.011719 24.226562 " fill-opacity="1" fill-rule="evenodd"/></g><g clip-path="url(#83c484c1a1)"><path fill="#000000" d="M 1.273438 24.226562 C 1.539062 24.25 1.75 24.46875 1.777344 24.738281 L 1.671875 24.738281 C 1.648438 24.527344 1.480469 24.359375 1.273438 24.335938 Z M 1.273438 24.226562 " fill-opacity="1" fill-rule="evenodd"/></g><path fill="#000000" d="M 2.730469 19.726562 C 2.730469 19.8125 2.6875 19.859375 2.601562 19.859375 C 2.515625 19.859375 2.472656 19.8125 2.472656 19.726562 C 2.472656 19.636719 2.515625 19.59375 2.601562 19.59375 C 2.6875 19.59375 2.730469 19.636719 2.730469 19.726562 Z M 2.730469 19.726562 " fill-opacity="1" fill-rule="nonzero"/><path fill="#000000" d="M 9.351562 19.726562 C 9.351562 19.867188 9.28125 19.9375 9.144531 19.9375 C 9.003906 19.9375 8.9375 19.867188 8.9375 19.726562 C 8.9375 19.585938 9.003906 19.515625 9.144531 19.515625 C 9.28125 19.515625 9.351562 19.585938 9.351562 19.726562 Z M 9.351562 19.726562 " fill-opacity="1" fill-rule="nonzero"/><path fill="#000000" d="M 15.777344 19.726562 C 15.777344 19.8125 15.734375 19.859375 15.648438 19.859375 C 15.5625 19.859375 15.519531 19.8125 15.519531 19.726562 C 15.519531 19.636719 15.5625 19.59375 15.648438 19.59375 C 15.734375 19.59375 15.777344 19.636719 15.777344 19.726562 Z M 15.777344 19.726562 " fill-opacity="1" fill-rule="nonzero"/><g fill="#000000" fill-opacity="1"><g transform="translate(20.708019, 22.172468)"><g><path d="M 6.375 -5.5 L 6.375 0 L 5.484375 0 L 5.484375 -3.765625 L 3.796875 0 L 3.171875 0 L 1.5 -3.765625 L 1.5 0 L 0.59375 0 L 0.59375 -5.5 L 1.5625 -5.5 L 3.5 -1.1875 L 5.421875 -5.5 Z M 6.375 -5.5 "/></g></g></g><g fill="#000000" fill-opacity="1"><g transform="translate(27.535059, 22.172468)"><g><path d="M 2.84375 0 L 1.9375 0 L 1.9375 -2 L 0.125 -5.5 L 1.125 -5.5 L 2.390625 -2.8125 L 3.65625 -5.5 L 4.671875 -5.5 L 2.84375 -2 Z M 2.84375 0 "/></g></g></g><g fill="#000000" fill-opacity="1"><g transform="translate(32.173327, 22.172468)"><g/></g></g><g fill="#000000" fill-opacity="1"><g transform="translate(34.401572, 22.172468)"><g><path d="M 6.375 -5.5 L 6.375 0 L 5.484375 0 L 5.484375 -3.765625 L 3.796875 0 L 3.171875 0 L 1.5 -3.765625 L 1.5 0 L 0.59375 0 L 0.59375 -5.5 L 1.5625 -5.5 L 3.5 -1.1875 L 5.421875 -5.5 Z M 6.375 -5.5 "/></g></g></g><g fill="#000000" fill-opacity="1"><g transform="translate(41.228611, 22.172468)"><g><path d="M 4.296875 0 L 3.90625 -1.125 L 1.609375 -1.125 L 1.203125 0 L 0.265625 0 L 2.234375 -5.5 L 3.28125 -5.5 L 5.25 0 Z M 1.84375 -1.828125 L 3.65625 -1.828125 L 2.765625 -4.40625 Z M 1.84375 -1.828125 "/></g></g></g><g fill="#000000" fill-opacity="1"><g transform="translate(46.593835, 22.172468)"><g><path d="M 0.3125 -4.796875 L 0.3125 -5.5 L 4.140625 -5.5 L 4.140625 -4.796875 L 2.6875 -4.796875 L 2.6875 0 L 1.78125 0 L 1.78125 -4.796875 Z M 0.3125 -4.796875 "/></g></g></g><g fill="#000000" fill-opacity="1"><g transform="translate(50.908131, 22.172468)"><g><path d="M 3.09375 0.046875 C 2.3125 0.046875 1.648438 -0.210938 1.109375 -0.734375 C 0.566406 -1.265625 0.296875 -1.9375 0.296875 -2.75 C 0.296875 -3.570312 0.566406 -4.242188 1.109375 -4.765625 C 1.648438 -5.296875 2.3125 -5.5625 3.09375 -5.5625 C 3.6875 -5.5625 4.207031 -5.414062 4.65625 -5.125 C 5.113281 -4.84375 5.445312 -4.4375 5.65625 -3.90625 L 4.5625 -3.90625 C 4.269531 -4.46875 3.78125 -4.75 3.09375 -4.75 C 2.539062 -4.75 2.085938 -4.566406 1.734375 -4.203125 C 1.390625 -3.835938 1.21875 -3.351562 1.21875 -2.75 C 1.21875 -2.15625 1.390625 -1.675781 1.734375 -1.3125 C 2.085938 -0.945312 2.539062 -0.765625 3.09375 -0.765625 C 3.78125 -0.765625 4.269531 -1.039062 4.5625 -1.59375 L 5.65625 -1.59375 C 5.445312 -1.070312 5.113281 -0.664062 4.65625 -0.375 C 4.207031 -0.09375 3.6875 0.046875 3.09375 0.046875 Z M 3.09375 0.046875 "/></g></g></g><g fill="#2ba84a" fill-opacity="1"><g transform="translate(56.875686, 22.172468)"><g><path d="M 4.078125 -5.5 L 4.984375 -5.5 L 4.984375 0 L 4.078125 0 L 4.078125 -2.421875 L 1.5 -2.421875 L 1.5 0 L 0.59375 0 L 0.59375 -5.5 L 1.5 -5.5 L 1.5 -3.125 L 4.078125 -3.125 Z M 4.078125 -5.5 "/></g></g></g></svg>